<svg xmlns="http://www.w3.org/2000/svg" xmlns:xlink="http://www.w3.org/1999/xlink" width="500" zoomAndPan="magnify" viewBox="0 0 375 374.999991" height="500" preserveAspectRatio="xMidYMid meet" version="1.0"><rect x="-37.5" width="450" fill="#ffffff" y="-37.499999" height="449.999989" fill-opacity="1"/><rect x="-37.5" width="450" fill="#ffffff" y="-37.499999" height="449.999989" fill-opacity="1"/><path fill="#00704a" d="M -161.222656 187.5 L -161.222656 536.21875 L 536.21875 536.21875 L 536.21875 -161.222656 L -161.222656 -161.222656 Z M 350.363281 -21.1875 C 362.351562 -19.609375 372.050781 -15.085938 380.550781 -7.019531 C 388.832031 0.769531 394.335938 11.394531 396.132812 22.949219 C 396.625 26 396.730469 67.953125 396.625 190.222656 L 396.460938 353.414062 L 395.261719 357.230469 C 393.464844 363.113281 392.480469 365.675781 390.410156 369.378906 C 382.675781 383.492188 369.652344 392.863281 353.6875 395.859375 C 349.492188 396.679688 333.089844 396.730469 185.59375 396.625 L 22.128906 396.460938 L 17.769531 395.207031 C -1.898438 389.429688 -15.03125 376.136719 -20.152344 356.628906 L -21.460938 351.78125 L -21.460938 188.316406 C -21.460938 56.238281 -21.296875 24.199219 -20.75 21.3125 C -17.535156 5.238281 -7.785156 -8 6.4375 -15.574219 C 11.125 -18.082031 18.535156 -20.425781 24.039062 -21.132812 C 29.105469 -21.785156 345.296875 -21.839844 350.363281 -21.1875 Z M 350.363281 -21.1875 " fill-opacity="1" fill-rule="nonzero"/><path fill="#00704a" d="M 56.894531 13.957031 C 35.699219 17.824219 19.460938 33.191406 14.394531 54.003906 C 13.464844 57.875 13.410156 64.46875 13.410156 187.5 C 13.410156 309.28125 13.464844 317.125 14.394531 320.886719 C 16.734375 330.53125 21.148438 338.757812 27.851562 345.730469 C 34.824219 353.035156 42.5625 357.664062 52.371094 360.335938 L 57.003906 361.585938 L 143.636719 361.585938 L 148.269531 360.335938 C 168.265625 354.941406 182.703125 339.355469 186.738281 318.871094 C 187.609375 314.347656 188.042969 313.421875 188.042969 315.980469 C 188.042969 321.105469 191.914062 331.835938 196 337.996094 C 203.957031 350.035156 215.617188 357.9375 229.511719 360.769531 C 234.523438 361.804688 237.082031 361.859375 274.84375 361.859375 C 317.617188 361.859375 318.597656 361.804688 326.441406 359.136719 C 344.914062 352.761719 358.320312 336.796875 361.316406 317.5625 C 361.75 314.726562 361.859375 278.277344 361.75 185.046875 C 361.585938 63.59375 361.535156 56.292969 360.605469 53.1875 C 355.539062 36.023438 344.695312 23.492188 329.710938 17.335938 C 319.90625 13.304688 321.210938 13.410156 274.679688 13.410156 C 232.996094 13.410156 232.996094 13.410156 227.820312 14.664062 C 207.550781 19.625 191.96875 36.242188 188.371094 56.730469 C 187.664062 60.761719 187.664062 60.816406 187.226562 58.636719 C 185.046875 46.378906 180.6875 37.550781 172.84375 29.324219 C 166.140625 22.292969 157.96875 17.554688 147.722656 14.609375 C 143.746094 13.519531 142.546875 13.464844 102.226562 13.359375 C 69.699219 13.25 60 13.359375 56.894531 13.957031 Z M 128.433594 102.117188 C 139.988281 105.988281 148.597656 115.140625 151.539062 126.800781 C 152.574219 130.832031 152.628906 133.011719 152.628906 187.445312 C 152.574219 247.4375 152.628906 246.78125 149.957031 253.320312 C 146.523438 261.929688 138.023438 269.832031 128.925781 272.9375 C 124.621094 274.460938 120.535156 274.679688 100.101562 274.679688 C 80.59375 274.679688 78.308594 274.570312 74.492188 273.589844 C 62.886719 270.648438 53.679688 262.039062 49.808594 250.542969 L 48.285156 246.074219 L 48.285156 129.46875 L 49.539062 125.65625 C 53.949219 111.871094 64.140625 103.097656 78.523438 100.648438 C 79.289062 100.539062 89.804688 100.484375 101.953125 100.539062 L 124.023438 100.648438 Z M 302.796875 102.117188 C 314.347656 105.988281 322.957031 115.140625 325.898438 126.800781 C 326.933594 130.832031 326.988281 133.011719 326.988281 187.445312 C 326.933594 247.4375 326.988281 246.78125 324.316406 253.320312 C 320.886719 261.929688 312.386719 269.832031 303.285156 272.9375 C 298.980469 274.460938 294.894531 274.679688 274.460938 274.679688 C 254.957031 274.679688 252.667969 274.570312 248.851562 273.589844 C 237.246094 270.648438 228.039062 262.039062 224.171875 250.542969 L 222.644531 246.074219 L 222.644531 129.46875 L 223.898438 125.65625 C 228.3125 111.871094 238.5 103.097656 252.886719 100.648438 C 253.648438 100.539062 264.164062 100.484375 276.316406 100.539062 L 298.382812 100.648438 Z M 302.796875 102.117188 " fill-opacity="1" fill-rule="nonzero"/></svg>