<svg width="699" height="302" viewBox="0 0 699 302" fill="none" xmlns="http://www.w3.org/2000/svg">
<path d="M633.25 57.499C640.407 57.3553 647.448 58.093 654.365 59.9516C662.202 62.0592 669.377 65.5081 675.796 70.4898C680.05 73.7855 683.891 77.493 687.024 81.8999C689.036 84.7261 690.511 87.7631 691.383 91.1545C693.069 97.6499 688.854 105.851 681.525 108.198C676.735 109.731 672.194 109.261 667.911 106.569C666.321 105.563 665.133 104.184 664.252 102.536C663.888 101.865 663.495 101.204 663.208 100.505C660.583 94.2489 655.802 90.3401 649.594 88.0217C639.726 84.3525 629.686 83.4232 619.512 86.6517C610.037 89.6599 605.515 97.1421 606.243 105.918C606.559 109.779 608.102 113.141 610.918 115.862C614.913 119.732 619.761 122.108 624.982 123.756C631.526 125.835 638.27 127.176 644.909 128.891C653.397 131.085 661.905 133.298 669.971 136.766C680.912 141.47 689.285 149.077 694.133 160.084C698.051 168.975 699.143 178.325 697.486 187.915C695.33 200.379 688.796 210.16 678.718 217.566C673.717 221.235 668.065 223.726 662.077 225.479C656.271 227.175 650.389 228.286 644.354 228.813C639.458 229.244 634.563 229.407 629.686 229.091C616.523 228.219 603.896 225.307 592.515 218.285C583.854 212.939 577.752 205.504 574.801 195.685C573.421 191.086 573.431 186.449 575.663 182.052C578.968 175.537 589.2 171.993 596.835 178.105C599.46 180.203 601.568 182.761 602.861 185.817C605.87 192.945 611.541 196.834 618.506 199.277C625.931 201.883 633.557 202.429 641.336 201.663C647.199 201.078 652.698 199.478 657.67 196.24C661.866 193.5 664.74 189.793 666.082 184.916C668.323 176.773 663.974 167.892 657.402 164.597C651.912 161.847 646.126 159.989 640.253 158.398C630.184 155.668 620.068 153.1 610.085 150.063C601.568 147.477 593.818 143.472 587.351 137.283C582.091 132.254 578.508 126.151 576.717 119.1C574.485 110.296 574.092 101.453 576.295 92.5244C578.691 82.8101 584.017 75.1554 591.921 69.1869C599.719 63.3047 608.581 60.0953 618.161 58.5433C623.172 57.7289 628.201 57.5373 633.24 57.499H633.25Z" fill="#007041"/>
<path d="M502.079 225.985C485.39 225.985 468.691 225.994 452.003 225.985C444.463 225.985 439.28 220.926 438.782 213.396C438.437 208.194 440.468 203.835 443.246 199.725C447.279 193.757 451.916 188.258 456.294 182.548C463.834 172.718 471.326 162.841 478.789 152.954C485.332 144.284 491.78 135.547 498.333 126.877C505.068 117.967 511.898 109.134 518.652 100.244C520.635 97.6284 522.523 94.9268 524.372 92.206C525.349 90.7689 525.109 90.3474 523.375 90.3378C514.878 90.2899 506.39 90.06 497.882 90.1558C482.429 90.3378 466.976 90.539 451.514 90.357C442.997 90.2516 438.303 83.3059 437.881 77.5003C437.488 72.0491 438.868 67.5368 443.687 64.4519C445.785 63.1107 448.132 62.8904 450.508 62.8233C456.323 62.67 462.138 62.67 467.963 62.6221C495.985 62.3826 524.008 62.191 552.03 62.306C554.339 62.306 556.619 62.5359 558.899 62.7946C563.929 63.3694 568.221 68.4661 568.336 73.946C568.422 78.0559 567.023 81.7347 564.935 85.2028C562.08 89.9354 558.631 94.2274 555.345 98.6439C551.053 104.411 546.723 110.159 542.364 115.879C536.797 123.179 531.135 130.402 525.608 137.731C513.728 153.481 501.743 169.164 490.141 185.125C488.254 187.721 486.252 190.231 484.307 192.789C483.656 193.642 483.004 194.494 482.382 195.366C481.95 195.97 481.289 196.583 481.797 197.407C482.238 198.116 483.043 197.838 483.704 197.838C497.03 197.838 510.346 197.828 523.672 197.819C533.626 197.819 543.58 197.79 553.534 197.79C558.363 197.79 562.022 200.003 564.695 203.921C568.949 210.139 567.655 223.436 555.824 225.793C554.415 226.071 552.921 225.994 551.474 225.994C535.015 226.004 518.547 225.994 502.088 225.994L502.079 225.985Z" fill="#007041"/>
<path d="M226.971 144.875C226.971 165.846 226.971 186.827 226.971 207.798C226.971 210.021 226.913 212.234 226.856 214.457C226.654 222.791 220.906 227.467 213.079 228.07C210.866 228.243 208.663 228.099 206.507 227.438C200.989 225.742 197.435 220.866 197.042 214.677C196.63 208.258 196.62 201.83 196.62 195.402C196.62 160.568 196.649 125.743 196.659 90.9096C196.659 85.7842 196.745 80.6491 196.553 75.5237C196.352 70.1108 200.242 63.1556 208.04 61.3353C213.654 60.0228 218.693 61.2491 222.746 65.474C225.342 68.1756 226.501 71.5862 226.568 75.2938C226.721 83.7915 226.846 92.2891 226.865 100.777C226.913 115.473 226.875 130.17 226.875 144.866H226.98L226.971 144.875Z" fill="#007041"/>
<path d="M211.441 44.9243C198.115 44.9243 189.425 34.7884 188.879 23.3783C188.304 11.4605 197.952 0.606027 210.991 0.021631C222.765 -0.505283 233.265 8.64386 233.686 22.0371C234.069 34.1178 225.428 44.5794 211.441 44.9339V44.9243Z" fill="#007041"/>
<path d="M84.4545 58.4589C90.2793 58.526 96.037 59.1391 101.795 60.0397C108.99 61.1701 116.261 61.4096 123.532 61.4384C132.796 61.4767 142.061 61.515 151.325 61.4863C156.891 61.4671 160.436 64.5328 162.974 69.0451C164.162 71.1528 164.392 73.4616 163.846 75.9237C163.243 78.6062 162.38 81.2025 161.499 83.7987C159.554 89.5373 159.688 95.3334 160.656 101.225C161.71 107.654 164.009 113.727 165.705 119.974C167.918 128.117 169.441 136.346 169.441 144.806C169.47 168.852 169.585 192.899 169.422 216.945C169.355 226.363 167.64 235.579 164.842 244.623C161.537 255.324 156.105 264.799 148.863 273.2C141.026 282.292 131.494 289.362 120.543 294.248C109.507 299.173 97.9339 301.941 85.7191 301.999C75.6694 302.047 65.9358 300.725 56.4514 297.448C42.3588 292.591 30.211 284.85 20.5637 273.354C17.2681 269.426 14.1258 265.402 11.8361 260.765C7.30465 251.559 14.2887 239.44 25.3826 239.411C30.8529 239.392 34.8862 241.873 37.8561 246.27C39.9063 249.307 41.5253 252.632 44.0545 255.343C50.8086 262.566 58.9806 267.462 68.4555 270.116C86.1981 275.088 102.638 272.003 117.784 261.714C125.726 256.32 131.407 249.039 135.038 240.187C136.811 235.866 137.817 231.335 138.382 226.679C139.033 221.4 138.851 216.131 138.765 210.852C138.755 210.162 138.698 209.473 138.688 208.783C138.679 208.218 138.564 207.681 138.008 207.442C137.414 207.183 136.973 207.624 136.609 207.988C134.875 209.731 132.95 211.235 130.957 212.663C121.971 219.12 112.036 223.45 101.191 225.567C93.048 227.158 84.7706 227.704 76.5316 226.937C62.4869 225.634 49.5057 221.16 37.6262 213.4C24.1755 204.615 14.2791 192.851 7.50583 178.413C4.05694 171.056 2.11214 163.229 0.914609 155.191C0.0332253 149.251 -0.177542 143.302 0.138607 137.343C0.857127 123.777 4.55511 111.055 11.6158 99.3954C14.9114 93.9538 18.4944 88.7038 22.9875 84.1723C30.6517 76.4602 39.2836 70.1181 49.2758 65.6633C56.0873 62.6263 63.1192 60.442 70.5056 59.4649C75.1329 58.8613 79.7697 58.3631 84.4545 58.4493V58.4589Z" fill="#007041"/>
<path d="M29.6076 140.246C29.895 126.258 35.9593 112.664 47.6951 101.867C56.0491 94.1837 66.1754 89.9301 77.5472 88.6463C83.3912 87.9853 89.1393 88.2631 94.8779 89.269C97.4358 89.7193 99.8979 90.572 102.322 91.4917C117.229 97.1919 128.188 107.184 134.789 121.756C137.347 127.408 138.736 133.434 139.359 139.632C140.394 149.893 138.516 159.579 133.601 168.613C128.553 177.915 121.291 185.1 112.065 190.274C106.719 193.272 101.105 195.591 95.0408 196.731C89.4363 197.785 83.8223 197.871 78.1603 197.219C70.7931 196.367 63.7899 194.307 57.4191 190.542C45.051 183.232 36.218 173.001 32.0314 159.023C30.3932 153.553 29.6459 147.996 29.5884 140.246H29.6076Z" fill="#EDEDED"/>
<path d="M392.21 216.874C392.21 214.421 392.21 211.969 392.21 209.526C392.21 208.932 392.364 208.223 391.607 207.964C390.936 207.734 390.409 208.146 389.988 208.587C388.072 210.608 385.725 212.055 383.454 213.617C375.819 218.867 367.359 222.239 358.44 224.5C349.444 226.78 340.257 226.914 331.098 226.291C321.288 225.63 311.861 223.149 302.913 219.039C296.858 216.261 291.244 212.726 285.984 208.616C276.165 200.961 268.596 191.419 262.791 180.488C258.681 172.738 256.142 164.422 254.81 155.723C253.134 144.744 253.776 133.88 256.257 123.121C259.255 110.092 264.917 98.2798 273.693 88.1631C286.31 73.6202 302.108 64.222 320.962 60.1791C329.546 58.3397 338.226 58.014 346.972 58.9433C351.849 59.4606 356.62 60.5144 361.477 61.1084C362.924 61.2808 364.37 61.4054 365.817 61.4054C379.756 61.4054 393.686 61.3958 407.625 61.4054C412.885 61.4054 417.32 64.3752 419.323 69.127C420.386 71.6467 420.328 74.1663 419.6 76.7625C418.432 80.9491 416.027 84.5225 414.044 88.3068C413.651 89.054 413.229 89.7821 412.837 90.5198C411.045 93.8729 410.834 97.3314 411.936 100.962C413.076 104.699 414.513 108.32 415.874 111.97C418.585 119.232 420.865 126.589 421.9 134.292C422.359 137.712 422.484 141.161 422.484 144.6C422.484 162.218 422.484 179.827 422.455 197.445C422.446 204.87 422.589 212.304 422.292 219.729C421.957 228.207 420.137 236.389 417.521 244.427C415.069 251.947 411.869 259.152 407.625 265.8C405.086 269.786 401.906 273.359 398.591 276.77C387.593 288.074 374.257 295.317 359.082 299.255C349.444 301.755 339.576 302.474 329.709 301.63C313.068 300.213 298.19 294.263 285.295 283.438C279.738 278.772 274.91 273.493 270.618 267.697C268.797 265.235 267.437 262.505 266.297 259.65C263.356 252.292 267.523 242.501 276.835 240.585C282.526 239.416 287.211 240.805 290.995 245.327C293.256 248.038 294.98 251.123 297.241 253.835C303.708 261.604 311.813 266.768 321.508 269.498C326.825 270.993 332.219 272.085 337.756 272.104C344.06 272.123 350.22 270.964 356.208 269C364.092 266.413 371.105 262.342 377.026 256.459C386.376 247.186 390.898 235.795 391.913 222.842C391.99 221.846 392.076 220.859 392.105 219.863C392.143 218.867 392.105 217.87 392.105 216.874C392.134 216.874 392.162 216.874 392.191 216.874H392.21Z" fill="#007041"/>
<path d="M392.747 143.93C392.593 159.344 386.864 172.297 375.579 182.826C367.215 190.634 357.252 195.146 346.043 196.813C334.029 198.595 322.581 196.439 312.004 190.49C305.135 186.629 299.425 181.293 294.76 174.912C286.856 164.096 283.311 151.91 284.384 138.651C285.821 120.937 293.802 106.787 308.785 96.8332C314.524 93.0202 320.809 90.491 327.524 89.2169C333.474 88.0864 339.48 87.8182 345.535 88.757C360.346 91.0371 372.005 98.5001 381.202 110.092C386.366 116.597 389.959 123.888 391.549 132.069C392.306 135.969 392.862 139.916 392.737 143.939L392.747 143.93Z" fill="#EDEDED"/>
</svg>
